<mxfile host="app.diagrams.net" agent="Mozilla/5.0 (X11; Linux x86_64) AppleWebKit/537.36 (KHTML, like Gecko) Chrome/126.0.0.0 YaBrowser/24.7.0.0 Safari/537.36" version="24.8.3" pages="4">
  <diagram name="Page-1" id="-H_mtQnk-PTXWXPvYvuk">
    <mxGraphModel dx="1386" dy="775" grid="1" gridSize="10" guides="1" tooltips="1" connect="1" arrows="1" fold="1" page="1" pageScale="1" pageWidth="1169" pageHeight="827" math="0" shadow="0">
      <root>
        <mxCell id="0" />
        <mxCell id="1" parent="0" />
        <mxCell id="zA23MoTUsTF4_91t8viU-2" value="MongoDB" style="shape=cylinder3;whiteSpace=wrap;html=1;boundedLbl=1;backgroundOutline=1;size=15;" parent="1" vertex="1">
          <mxGeometry x="560" y="280" width="60" height="80" as="geometry" />
        </mxCell>
        <mxCell id="zA23MoTUsTF4_91t8viU-3" value="pymongo-api" style="rounded=1;whiteSpace=wrap;html=1;" parent="1" vertex="1">
          <mxGeometry x="360" y="290" width="120" height="60" as="geometry" />
        </mxCell>
        <mxCell id="zA23MoTUsTF4_91t8viU-4" style="edgeStyle=orthogonalEdgeStyle;rounded=0;orthogonalLoop=1;jettySize=auto;html=1;exitX=1;exitY=0.5;exitDx=0;exitDy=0;entryX=0;entryY=0.5;entryDx=0;entryDy=0;entryPerimeter=0;" parent="1" source="zA23MoTUsTF4_91t8viU-3" target="zA23MoTUsTF4_91t8viU-2" edge="1">
          <mxGeometry relative="1" as="geometry" />
        </mxCell>
      </root>
    </mxGraphModel>
  </diagram>
  <diagram name="stage1" id="QeTDYETfXvCGDIU8VXIq">
    <mxGraphModel dx="1386" dy="775" grid="1" gridSize="10" guides="1" tooltips="1" connect="1" arrows="1" fold="1" page="1" pageScale="1" pageWidth="1169" pageHeight="827" math="0" shadow="0">
      <root>
        <mxCell id="uOOMwxNGUNckwZX6R5zg-0" />
        <mxCell id="uOOMwxNGUNckwZX6R5zg-1" parent="uOOMwxNGUNckwZX6R5zg-0" />
        <mxCell id="fcGLM7BBP8muiwCmyuZH-24" style="edgeStyle=orthogonalEdgeStyle;rounded=0;orthogonalLoop=1;jettySize=auto;html=1;entryX=0;entryY=0.5;entryDx=0;entryDy=0;" edge="1" parent="uOOMwxNGUNckwZX6R5zg-1" source="uOOMwxNGUNckwZX6R5zg-3" target="fcGLM7BBP8muiwCmyuZH-14">
          <mxGeometry relative="1" as="geometry" />
        </mxCell>
        <mxCell id="uOOMwxNGUNckwZX6R5zg-3" value="pymongo-api" style="rounded=1;whiteSpace=wrap;html=1;" vertex="1" parent="uOOMwxNGUNckwZX6R5zg-1">
          <mxGeometry x="260" y="310" width="120" height="60" as="geometry" />
        </mxCell>
        <mxCell id="fcGLM7BBP8muiwCmyuZH-16" value="" style="group" vertex="1" connectable="0" parent="uOOMwxNGUNckwZX6R5zg-1">
          <mxGeometry x="540" y="185" width="110" height="310" as="geometry" />
        </mxCell>
        <mxCell id="fcGLM7BBP8muiwCmyuZH-14" value="" style="rounded=0;whiteSpace=wrap;html=1;fillColor=#dae8fc;strokeColor=#6c8ebf;" vertex="1" parent="fcGLM7BBP8muiwCmyuZH-16">
          <mxGeometry width="110" height="310" as="geometry" />
        </mxCell>
        <mxCell id="fcGLM7BBP8muiwCmyuZH-1" value="Router2" style="rounded=1;whiteSpace=wrap;html=1;" vertex="1" parent="fcGLM7BBP8muiwCmyuZH-16">
          <mxGeometry x="10" y="55" width="90" height="40" as="geometry" />
        </mxCell>
        <mxCell id="fcGLM7BBP8muiwCmyuZH-2" value="Router1" style="rounded=1;whiteSpace=wrap;html=1;" vertex="1" parent="fcGLM7BBP8muiwCmyuZH-16">
          <mxGeometry x="10" y="215" width="90" height="40" as="geometry" />
        </mxCell>
        <mxCell id="fcGLM7BBP8muiwCmyuZH-17" value="" style="group" vertex="1" connectable="0" parent="uOOMwxNGUNckwZX6R5zg-1">
          <mxGeometry x="160" y="70" width="290" height="80" as="geometry" />
        </mxCell>
        <mxCell id="fcGLM7BBP8muiwCmyuZH-13" value="" style="rounded=0;whiteSpace=wrap;html=1;fillColor=#dae8fc;strokeColor=#6c8ebf;" vertex="1" parent="fcGLM7BBP8muiwCmyuZH-17">
          <mxGeometry width="290" height="80" as="geometry" />
        </mxCell>
        <mxCell id="fcGLM7BBP8muiwCmyuZH-3" value="Server configuration1" style="rounded=1;whiteSpace=wrap;html=1;" vertex="1" parent="fcGLM7BBP8muiwCmyuZH-17">
          <mxGeometry x="20" y="20" width="90" height="40" as="geometry" />
        </mxCell>
        <mxCell id="fcGLM7BBP8muiwCmyuZH-4" value="Server configuration2" style="rounded=1;whiteSpace=wrap;html=1;" vertex="1" parent="fcGLM7BBP8muiwCmyuZH-17">
          <mxGeometry x="160" y="20" width="90" height="40" as="geometry" />
        </mxCell>
        <mxCell id="fcGLM7BBP8muiwCmyuZH-23" value="" style="group" vertex="1" connectable="0" parent="uOOMwxNGUNckwZX6R5zg-1">
          <mxGeometry x="770" y="190" width="390" height="300" as="geometry" />
        </mxCell>
        <mxCell id="fcGLM7BBP8muiwCmyuZH-22" value="" style="rounded=0;whiteSpace=wrap;html=1;fillColor=#dae8fc;strokeColor=#6c8ebf;" vertex="1" parent="fcGLM7BBP8muiwCmyuZH-23">
          <mxGeometry width="120" height="300" as="geometry" />
        </mxCell>
        <mxCell id="uOOMwxNGUNckwZX6R5zg-2" value="MongoDB shard1" style="shape=cylinder3;whiteSpace=wrap;html=1;boundedLbl=1;backgroundOutline=1;size=15;" vertex="1" parent="fcGLM7BBP8muiwCmyuZH-23">
          <mxGeometry x="30" y="174" width="60" height="80" as="geometry" />
        </mxCell>
        <mxCell id="fcGLM7BBP8muiwCmyuZH-0" value="MongoDB shard2" style="shape=cylinder3;whiteSpace=wrap;html=1;boundedLbl=1;backgroundOutline=1;size=15;" vertex="1" parent="fcGLM7BBP8muiwCmyuZH-23">
          <mxGeometry x="30" y="30" width="60" height="80" as="geometry" />
        </mxCell>
        <mxCell id="fcGLM7BBP8muiwCmyuZH-25" style="edgeStyle=orthogonalEdgeStyle;rounded=0;orthogonalLoop=1;jettySize=auto;html=1;entryX=0.5;entryY=1;entryDx=0;entryDy=0;" edge="1" parent="uOOMwxNGUNckwZX6R5zg-1" source="fcGLM7BBP8muiwCmyuZH-14" target="fcGLM7BBP8muiwCmyuZH-13">
          <mxGeometry relative="1" as="geometry">
            <Array as="points">
              <mxPoint x="305" y="220" />
            </Array>
          </mxGeometry>
        </mxCell>
        <mxCell id="fcGLM7BBP8muiwCmyuZH-26" style="edgeStyle=orthogonalEdgeStyle;rounded=0;orthogonalLoop=1;jettySize=auto;html=1;entryX=0;entryY=0.5;entryDx=0;entryDy=0;" edge="1" parent="uOOMwxNGUNckwZX6R5zg-1" source="fcGLM7BBP8muiwCmyuZH-14" target="fcGLM7BBP8muiwCmyuZH-22">
          <mxGeometry relative="1" as="geometry" />
        </mxCell>
      </root>
    </mxGraphModel>
  </diagram>
  <diagram name="stage2" id="u0rDScqt1d3ZwZT3QHm-">
    <mxGraphModel dx="1386" dy="775" grid="1" gridSize="10" guides="1" tooltips="1" connect="1" arrows="1" fold="1" page="1" pageScale="1" pageWidth="1169" pageHeight="827" math="0" shadow="0">
      <root>
        <mxCell id="f_OntX8QZdL7tcZyhuMB-0" />
        <mxCell id="f_OntX8QZdL7tcZyhuMB-1" parent="f_OntX8QZdL7tcZyhuMB-0" />
        <mxCell id="f_OntX8QZdL7tcZyhuMB-2" style="edgeStyle=orthogonalEdgeStyle;rounded=0;orthogonalLoop=1;jettySize=auto;html=1;entryX=0;entryY=0.5;entryDx=0;entryDy=0;" edge="1" parent="f_OntX8QZdL7tcZyhuMB-1" source="f_OntX8QZdL7tcZyhuMB-3" target="f_OntX8QZdL7tcZyhuMB-5">
          <mxGeometry relative="1" as="geometry" />
        </mxCell>
        <mxCell id="f_OntX8QZdL7tcZyhuMB-3" value="pymongo-api" style="rounded=1;whiteSpace=wrap;html=1;" vertex="1" parent="f_OntX8QZdL7tcZyhuMB-1">
          <mxGeometry x="260" y="310" width="120" height="60" as="geometry" />
        </mxCell>
        <mxCell id="f_OntX8QZdL7tcZyhuMB-4" value="" style="group" vertex="1" connectable="0" parent="f_OntX8QZdL7tcZyhuMB-1">
          <mxGeometry x="540" y="185" width="110" height="310" as="geometry" />
        </mxCell>
        <mxCell id="f_OntX8QZdL7tcZyhuMB-5" value="" style="rounded=0;whiteSpace=wrap;html=1;fillColor=#dae8fc;strokeColor=#6c8ebf;" vertex="1" parent="f_OntX8QZdL7tcZyhuMB-4">
          <mxGeometry width="110" height="310" as="geometry" />
        </mxCell>
        <mxCell id="f_OntX8QZdL7tcZyhuMB-6" value="Router2" style="rounded=1;whiteSpace=wrap;html=1;" vertex="1" parent="f_OntX8QZdL7tcZyhuMB-4">
          <mxGeometry x="10" y="55" width="90" height="40" as="geometry" />
        </mxCell>
        <mxCell id="f_OntX8QZdL7tcZyhuMB-7" value="Router1" style="rounded=1;whiteSpace=wrap;html=1;" vertex="1" parent="f_OntX8QZdL7tcZyhuMB-4">
          <mxGeometry x="10" y="215" width="90" height="40" as="geometry" />
        </mxCell>
        <mxCell id="f_OntX8QZdL7tcZyhuMB-8" value="" style="group" vertex="1" connectable="0" parent="f_OntX8QZdL7tcZyhuMB-1">
          <mxGeometry x="160" y="70" width="290" height="80" as="geometry" />
        </mxCell>
        <mxCell id="f_OntX8QZdL7tcZyhuMB-9" value="" style="rounded=0;whiteSpace=wrap;html=1;fillColor=#dae8fc;strokeColor=#6c8ebf;" vertex="1" parent="f_OntX8QZdL7tcZyhuMB-8">
          <mxGeometry width="290" height="80" as="geometry" />
        </mxCell>
        <mxCell id="f_OntX8QZdL7tcZyhuMB-10" value="Server configuration1" style="rounded=1;whiteSpace=wrap;html=1;" vertex="1" parent="f_OntX8QZdL7tcZyhuMB-8">
          <mxGeometry x="20" y="20" width="90" height="40" as="geometry" />
        </mxCell>
        <mxCell id="f_OntX8QZdL7tcZyhuMB-11" value="Server configuration2" style="rounded=1;whiteSpace=wrap;html=1;" vertex="1" parent="f_OntX8QZdL7tcZyhuMB-8">
          <mxGeometry x="160" y="20" width="90" height="40" as="geometry" />
        </mxCell>
        <mxCell id="f_OntX8QZdL7tcZyhuMB-12" value="" style="group" vertex="1" connectable="0" parent="f_OntX8QZdL7tcZyhuMB-1">
          <mxGeometry x="770" y="190" width="390" height="300" as="geometry" />
        </mxCell>
        <mxCell id="f_OntX8QZdL7tcZyhuMB-13" value="" style="rounded=0;whiteSpace=wrap;html=1;fillColor=#dae8fc;strokeColor=#6c8ebf;" vertex="1" parent="f_OntX8QZdL7tcZyhuMB-12">
          <mxGeometry width="390" height="300" as="geometry" />
        </mxCell>
        <mxCell id="f_OntX8QZdL7tcZyhuMB-14" value="MongoDB shard1" style="shape=cylinder3;whiteSpace=wrap;html=1;boundedLbl=1;backgroundOutline=1;size=15;" vertex="1" parent="f_OntX8QZdL7tcZyhuMB-12">
          <mxGeometry x="30" y="174" width="60" height="80" as="geometry" />
        </mxCell>
        <mxCell id="f_OntX8QZdL7tcZyhuMB-15" value="MongoDB shard2" style="shape=cylinder3;whiteSpace=wrap;html=1;boundedLbl=1;backgroundOutline=1;size=15;" vertex="1" parent="f_OntX8QZdL7tcZyhuMB-12">
          <mxGeometry x="30" y="30" width="60" height="80" as="geometry" />
        </mxCell>
        <mxCell id="f_OntX8QZdL7tcZyhuMB-16" value="MongoDB replica2-1" style="shape=cylinder3;whiteSpace=wrap;html=1;boundedLbl=1;backgroundOutline=1;size=15;" vertex="1" parent="f_OntX8QZdL7tcZyhuMB-12">
          <mxGeometry x="117.5" y="30" width="60" height="80" as="geometry" />
        </mxCell>
        <mxCell id="f_OntX8QZdL7tcZyhuMB-17" value="MongoDB replica2-2" style="shape=cylinder3;whiteSpace=wrap;html=1;boundedLbl=1;backgroundOutline=1;size=15;" vertex="1" parent="f_OntX8QZdL7tcZyhuMB-12">
          <mxGeometry x="210" y="30" width="60" height="80" as="geometry" />
        </mxCell>
        <mxCell id="f_OntX8QZdL7tcZyhuMB-18" value="MongoDB replica2-3" style="shape=cylinder3;whiteSpace=wrap;html=1;boundedLbl=1;backgroundOutline=1;size=15;" vertex="1" parent="f_OntX8QZdL7tcZyhuMB-12">
          <mxGeometry x="300" y="30" width="60" height="80" as="geometry" />
        </mxCell>
        <mxCell id="f_OntX8QZdL7tcZyhuMB-19" value="MongoDB replica1-1" style="shape=cylinder3;whiteSpace=wrap;html=1;boundedLbl=1;backgroundOutline=1;size=15;" vertex="1" parent="f_OntX8QZdL7tcZyhuMB-12">
          <mxGeometry x="117.5" y="174" width="60" height="80" as="geometry" />
        </mxCell>
        <mxCell id="f_OntX8QZdL7tcZyhuMB-20" value="MongoDB replica1-2" style="shape=cylinder3;whiteSpace=wrap;html=1;boundedLbl=1;backgroundOutline=1;size=15;" vertex="1" parent="f_OntX8QZdL7tcZyhuMB-12">
          <mxGeometry x="212.5" y="174" width="60" height="80" as="geometry" />
        </mxCell>
        <mxCell id="f_OntX8QZdL7tcZyhuMB-21" value="MongoDB replica1-3" style="shape=cylinder3;whiteSpace=wrap;html=1;boundedLbl=1;backgroundOutline=1;size=15;" vertex="1" parent="f_OntX8QZdL7tcZyhuMB-12">
          <mxGeometry x="302.5" y="174" width="60" height="80" as="geometry" />
        </mxCell>
        <mxCell id="f_OntX8QZdL7tcZyhuMB-22" style="edgeStyle=orthogonalEdgeStyle;rounded=0;orthogonalLoop=1;jettySize=auto;html=1;entryX=0.5;entryY=1;entryDx=0;entryDy=0;entryPerimeter=0;" edge="1" parent="f_OntX8QZdL7tcZyhuMB-12" source="f_OntX8QZdL7tcZyhuMB-15" target="f_OntX8QZdL7tcZyhuMB-16">
          <mxGeometry relative="1" as="geometry">
            <Array as="points">
              <mxPoint x="60" y="130" />
              <mxPoint x="148" y="130" />
            </Array>
          </mxGeometry>
        </mxCell>
        <mxCell id="f_OntX8QZdL7tcZyhuMB-23" style="edgeStyle=orthogonalEdgeStyle;rounded=0;orthogonalLoop=1;jettySize=auto;html=1;entryX=0.5;entryY=1;entryDx=0;entryDy=0;entryPerimeter=0;" edge="1" parent="f_OntX8QZdL7tcZyhuMB-12" source="f_OntX8QZdL7tcZyhuMB-15" target="f_OntX8QZdL7tcZyhuMB-17">
          <mxGeometry relative="1" as="geometry">
            <Array as="points">
              <mxPoint x="60" y="130" />
              <mxPoint x="240" y="130" />
            </Array>
          </mxGeometry>
        </mxCell>
        <mxCell id="f_OntX8QZdL7tcZyhuMB-24" style="edgeStyle=orthogonalEdgeStyle;rounded=0;orthogonalLoop=1;jettySize=auto;html=1;entryX=0.5;entryY=1;entryDx=0;entryDy=0;entryPerimeter=0;" edge="1" parent="f_OntX8QZdL7tcZyhuMB-12" source="f_OntX8QZdL7tcZyhuMB-15" target="f_OntX8QZdL7tcZyhuMB-18">
          <mxGeometry relative="1" as="geometry">
            <Array as="points">
              <mxPoint x="60" y="130" />
              <mxPoint x="330" y="130" />
            </Array>
          </mxGeometry>
        </mxCell>
        <mxCell id="f_OntX8QZdL7tcZyhuMB-25" style="edgeStyle=orthogonalEdgeStyle;rounded=0;orthogonalLoop=1;jettySize=auto;html=1;entryX=0.5;entryY=1;entryDx=0;entryDy=0;entryPerimeter=0;" edge="1" parent="f_OntX8QZdL7tcZyhuMB-12" source="f_OntX8QZdL7tcZyhuMB-14" target="f_OntX8QZdL7tcZyhuMB-19">
          <mxGeometry relative="1" as="geometry">
            <Array as="points">
              <mxPoint x="60" y="274" />
              <mxPoint x="148" y="274" />
            </Array>
          </mxGeometry>
        </mxCell>
        <mxCell id="f_OntX8QZdL7tcZyhuMB-26" style="edgeStyle=orthogonalEdgeStyle;rounded=0;orthogonalLoop=1;jettySize=auto;html=1;entryX=0.5;entryY=1;entryDx=0;entryDy=0;entryPerimeter=0;" edge="1" parent="f_OntX8QZdL7tcZyhuMB-12" source="f_OntX8QZdL7tcZyhuMB-14" target="f_OntX8QZdL7tcZyhuMB-20">
          <mxGeometry relative="1" as="geometry">
            <Array as="points">
              <mxPoint x="60" y="274" />
              <mxPoint x="243" y="274" />
            </Array>
          </mxGeometry>
        </mxCell>
        <mxCell id="f_OntX8QZdL7tcZyhuMB-27" style="edgeStyle=orthogonalEdgeStyle;rounded=0;orthogonalLoop=1;jettySize=auto;html=1;entryX=0.5;entryY=1;entryDx=0;entryDy=0;entryPerimeter=0;" edge="1" parent="f_OntX8QZdL7tcZyhuMB-12" source="f_OntX8QZdL7tcZyhuMB-14" target="f_OntX8QZdL7tcZyhuMB-21">
          <mxGeometry relative="1" as="geometry">
            <Array as="points">
              <mxPoint x="60" y="274" />
              <mxPoint x="333" y="274" />
            </Array>
          </mxGeometry>
        </mxCell>
        <mxCell id="f_OntX8QZdL7tcZyhuMB-28" style="edgeStyle=orthogonalEdgeStyle;rounded=0;orthogonalLoop=1;jettySize=auto;html=1;entryX=0.5;entryY=1;entryDx=0;entryDy=0;" edge="1" parent="f_OntX8QZdL7tcZyhuMB-1" source="f_OntX8QZdL7tcZyhuMB-5" target="f_OntX8QZdL7tcZyhuMB-9">
          <mxGeometry relative="1" as="geometry">
            <Array as="points">
              <mxPoint x="305" y="220" />
            </Array>
          </mxGeometry>
        </mxCell>
        <mxCell id="f_OntX8QZdL7tcZyhuMB-29" style="edgeStyle=orthogonalEdgeStyle;rounded=0;orthogonalLoop=1;jettySize=auto;html=1;entryX=0;entryY=0.5;entryDx=0;entryDy=0;" edge="1" parent="f_OntX8QZdL7tcZyhuMB-1" source="f_OntX8QZdL7tcZyhuMB-5" target="f_OntX8QZdL7tcZyhuMB-13">
          <mxGeometry relative="1" as="geometry" />
        </mxCell>
      </root>
    </mxGraphModel>
  </diagram>
  <diagram name="stage3" id="YcKaogB_skGt8wnxkJqG">
    <mxGraphModel dx="1386" dy="775" grid="1" gridSize="10" guides="1" tooltips="1" connect="1" arrows="1" fold="1" page="1" pageScale="1" pageWidth="1169" pageHeight="827" math="0" shadow="0">
      <root>
        <mxCell id="IuwNRAZsEj3mbs88M-d0-0" />
        <mxCell id="IuwNRAZsEj3mbs88M-d0-1" parent="IuwNRAZsEj3mbs88M-d0-0" />
        <mxCell id="IuwNRAZsEj3mbs88M-d0-2" style="edgeStyle=orthogonalEdgeStyle;rounded=0;orthogonalLoop=1;jettySize=auto;html=1;entryX=0;entryY=0.5;entryDx=0;entryDy=0;" edge="1" parent="IuwNRAZsEj3mbs88M-d0-1" source="IuwNRAZsEj3mbs88M-d0-3" target="IuwNRAZsEj3mbs88M-d0-5">
          <mxGeometry relative="1" as="geometry" />
        </mxCell>
        <mxCell id="IuwNRAZsEj3mbs88M-d0-3" value="pymongo-api" style="rounded=1;whiteSpace=wrap;html=1;" vertex="1" parent="IuwNRAZsEj3mbs88M-d0-1">
          <mxGeometry x="260" y="310" width="120" height="60" as="geometry" />
        </mxCell>
        <mxCell id="IuwNRAZsEj3mbs88M-d0-4" value="" style="group" vertex="1" connectable="0" parent="IuwNRAZsEj3mbs88M-d0-1">
          <mxGeometry x="540" y="185" width="110" height="310" as="geometry" />
        </mxCell>
        <mxCell id="IuwNRAZsEj3mbs88M-d0-5" value="" style="rounded=0;whiteSpace=wrap;html=1;fillColor=#dae8fc;strokeColor=#6c8ebf;" vertex="1" parent="IuwNRAZsEj3mbs88M-d0-4">
          <mxGeometry width="110" height="310" as="geometry" />
        </mxCell>
        <mxCell id="IuwNRAZsEj3mbs88M-d0-6" value="Router2" style="rounded=1;whiteSpace=wrap;html=1;" vertex="1" parent="IuwNRAZsEj3mbs88M-d0-4">
          <mxGeometry x="10" y="139" width="90" height="40" as="geometry" />
        </mxCell>
        <mxCell id="IuwNRAZsEj3mbs88M-d0-7" value="Router1" style="rounded=1;whiteSpace=wrap;html=1;" vertex="1" parent="IuwNRAZsEj3mbs88M-d0-4">
          <mxGeometry x="10" y="215" width="90" height="40" as="geometry" />
        </mxCell>
        <mxCell id="ZGFu3zz_KB0BWrI_LdIU-3" value="Router3" style="rounded=1;whiteSpace=wrap;html=1;" vertex="1" parent="IuwNRAZsEj3mbs88M-d0-4">
          <mxGeometry x="10" y="65" width="90" height="40" as="geometry" />
        </mxCell>
        <mxCell id="IuwNRAZsEj3mbs88M-d0-8" value="" style="group" vertex="1" connectable="0" parent="IuwNRAZsEj3mbs88M-d0-1">
          <mxGeometry x="160" y="70" width="380" height="80" as="geometry" />
        </mxCell>
        <mxCell id="IuwNRAZsEj3mbs88M-d0-9" value="" style="rounded=0;whiteSpace=wrap;html=1;fillColor=#dae8fc;strokeColor=#6c8ebf;" vertex="1" parent="IuwNRAZsEj3mbs88M-d0-8">
          <mxGeometry width="380" height="80" as="geometry" />
        </mxCell>
        <mxCell id="IuwNRAZsEj3mbs88M-d0-10" value="Server configuration1" style="rounded=1;whiteSpace=wrap;html=1;" vertex="1" parent="IuwNRAZsEj3mbs88M-d0-8">
          <mxGeometry x="20" y="20" width="90" height="40" as="geometry" />
        </mxCell>
        <mxCell id="IuwNRAZsEj3mbs88M-d0-11" value="Server configuration2" style="rounded=1;whiteSpace=wrap;html=1;" vertex="1" parent="IuwNRAZsEj3mbs88M-d0-8">
          <mxGeometry x="140" y="20" width="90" height="40" as="geometry" />
        </mxCell>
        <mxCell id="ZGFu3zz_KB0BWrI_LdIU-4" value="Server configuration3" style="rounded=1;whiteSpace=wrap;html=1;" vertex="1" parent="IuwNRAZsEj3mbs88M-d0-8">
          <mxGeometry x="270" y="20" width="90" height="40" as="geometry" />
        </mxCell>
        <mxCell id="IuwNRAZsEj3mbs88M-d0-12" value="" style="group" vertex="1" connectable="0" parent="IuwNRAZsEj3mbs88M-d0-1">
          <mxGeometry x="770" y="190" width="390" height="300" as="geometry" />
        </mxCell>
        <mxCell id="IuwNRAZsEj3mbs88M-d0-13" value="" style="rounded=0;whiteSpace=wrap;html=1;fillColor=#dae8fc;strokeColor=#6c8ebf;" vertex="1" parent="IuwNRAZsEj3mbs88M-d0-12">
          <mxGeometry width="390" height="300" as="geometry" />
        </mxCell>
        <mxCell id="IuwNRAZsEj3mbs88M-d0-14" value="MongoDB shard1" style="shape=cylinder3;whiteSpace=wrap;html=1;boundedLbl=1;backgroundOutline=1;size=15;" vertex="1" parent="IuwNRAZsEj3mbs88M-d0-12">
          <mxGeometry x="30" y="174" width="60" height="80" as="geometry" />
        </mxCell>
        <mxCell id="IuwNRAZsEj3mbs88M-d0-15" value="MongoDB shard2" style="shape=cylinder3;whiteSpace=wrap;html=1;boundedLbl=1;backgroundOutline=1;size=15;" vertex="1" parent="IuwNRAZsEj3mbs88M-d0-12">
          <mxGeometry x="30" y="30" width="60" height="80" as="geometry" />
        </mxCell>
        <mxCell id="IuwNRAZsEj3mbs88M-d0-16" value="MongoDB replica2-1" style="shape=cylinder3;whiteSpace=wrap;html=1;boundedLbl=1;backgroundOutline=1;size=15;" vertex="1" parent="IuwNRAZsEj3mbs88M-d0-12">
          <mxGeometry x="117.5" y="30" width="60" height="80" as="geometry" />
        </mxCell>
        <mxCell id="IuwNRAZsEj3mbs88M-d0-17" value="MongoDB replica2-2" style="shape=cylinder3;whiteSpace=wrap;html=1;boundedLbl=1;backgroundOutline=1;size=15;" vertex="1" parent="IuwNRAZsEj3mbs88M-d0-12">
          <mxGeometry x="210" y="30" width="60" height="80" as="geometry" />
        </mxCell>
        <mxCell id="IuwNRAZsEj3mbs88M-d0-18" value="MongoDB replica2-3" style="shape=cylinder3;whiteSpace=wrap;html=1;boundedLbl=1;backgroundOutline=1;size=15;" vertex="1" parent="IuwNRAZsEj3mbs88M-d0-12">
          <mxGeometry x="300" y="30" width="60" height="80" as="geometry" />
        </mxCell>
        <mxCell id="IuwNRAZsEj3mbs88M-d0-19" value="MongoDB replica1-1" style="shape=cylinder3;whiteSpace=wrap;html=1;boundedLbl=1;backgroundOutline=1;size=15;" vertex="1" parent="IuwNRAZsEj3mbs88M-d0-12">
          <mxGeometry x="117.5" y="174" width="60" height="80" as="geometry" />
        </mxCell>
        <mxCell id="IuwNRAZsEj3mbs88M-d0-20" value="MongoDB replica1-2" style="shape=cylinder3;whiteSpace=wrap;html=1;boundedLbl=1;backgroundOutline=1;size=15;" vertex="1" parent="IuwNRAZsEj3mbs88M-d0-12">
          <mxGeometry x="212.5" y="174" width="60" height="80" as="geometry" />
        </mxCell>
        <mxCell id="IuwNRAZsEj3mbs88M-d0-21" value="MongoDB replica1-3" style="shape=cylinder3;whiteSpace=wrap;html=1;boundedLbl=1;backgroundOutline=1;size=15;" vertex="1" parent="IuwNRAZsEj3mbs88M-d0-12">
          <mxGeometry x="302.5" y="174" width="60" height="80" as="geometry" />
        </mxCell>
        <mxCell id="IuwNRAZsEj3mbs88M-d0-22" style="edgeStyle=orthogonalEdgeStyle;rounded=0;orthogonalLoop=1;jettySize=auto;html=1;entryX=0.5;entryY=1;entryDx=0;entryDy=0;entryPerimeter=0;" edge="1" parent="IuwNRAZsEj3mbs88M-d0-12" source="IuwNRAZsEj3mbs88M-d0-15" target="IuwNRAZsEj3mbs88M-d0-16">
          <mxGeometry relative="1" as="geometry">
            <Array as="points">
              <mxPoint x="60" y="130" />
              <mxPoint x="148" y="130" />
            </Array>
          </mxGeometry>
        </mxCell>
        <mxCell id="IuwNRAZsEj3mbs88M-d0-23" style="edgeStyle=orthogonalEdgeStyle;rounded=0;orthogonalLoop=1;jettySize=auto;html=1;entryX=0.5;entryY=1;entryDx=0;entryDy=0;entryPerimeter=0;" edge="1" parent="IuwNRAZsEj3mbs88M-d0-12" source="IuwNRAZsEj3mbs88M-d0-15" target="IuwNRAZsEj3mbs88M-d0-17">
          <mxGeometry relative="1" as="geometry">
            <Array as="points">
              <mxPoint x="60" y="130" />
              <mxPoint x="240" y="130" />
            </Array>
          </mxGeometry>
        </mxCell>
        <mxCell id="IuwNRAZsEj3mbs88M-d0-24" style="edgeStyle=orthogonalEdgeStyle;rounded=0;orthogonalLoop=1;jettySize=auto;html=1;entryX=0.5;entryY=1;entryDx=0;entryDy=0;entryPerimeter=0;" edge="1" parent="IuwNRAZsEj3mbs88M-d0-12" source="IuwNRAZsEj3mbs88M-d0-15" target="IuwNRAZsEj3mbs88M-d0-18">
          <mxGeometry relative="1" as="geometry">
            <Array as="points">
              <mxPoint x="60" y="130" />
              <mxPoint x="330" y="130" />
            </Array>
          </mxGeometry>
        </mxCell>
        <mxCell id="IuwNRAZsEj3mbs88M-d0-25" style="edgeStyle=orthogonalEdgeStyle;rounded=0;orthogonalLoop=1;jettySize=auto;html=1;entryX=0.5;entryY=1;entryDx=0;entryDy=0;entryPerimeter=0;" edge="1" parent="IuwNRAZsEj3mbs88M-d0-12" source="IuwNRAZsEj3mbs88M-d0-14" target="IuwNRAZsEj3mbs88M-d0-19">
          <mxGeometry relative="1" as="geometry">
            <Array as="points">
              <mxPoint x="60" y="274" />
              <mxPoint x="148" y="274" />
            </Array>
          </mxGeometry>
        </mxCell>
        <mxCell id="IuwNRAZsEj3mbs88M-d0-26" style="edgeStyle=orthogonalEdgeStyle;rounded=0;orthogonalLoop=1;jettySize=auto;html=1;entryX=0.5;entryY=1;entryDx=0;entryDy=0;entryPerimeter=0;" edge="1" parent="IuwNRAZsEj3mbs88M-d0-12" source="IuwNRAZsEj3mbs88M-d0-14" target="IuwNRAZsEj3mbs88M-d0-20">
          <mxGeometry relative="1" as="geometry">
            <Array as="points">
              <mxPoint x="60" y="274" />
              <mxPoint x="243" y="274" />
            </Array>
          </mxGeometry>
        </mxCell>
        <mxCell id="IuwNRAZsEj3mbs88M-d0-27" style="edgeStyle=orthogonalEdgeStyle;rounded=0;orthogonalLoop=1;jettySize=auto;html=1;entryX=0.5;entryY=1;entryDx=0;entryDy=0;entryPerimeter=0;" edge="1" parent="IuwNRAZsEj3mbs88M-d0-12" source="IuwNRAZsEj3mbs88M-d0-14" target="IuwNRAZsEj3mbs88M-d0-21">
          <mxGeometry relative="1" as="geometry">
            <Array as="points">
              <mxPoint x="60" y="274" />
              <mxPoint x="333" y="274" />
            </Array>
          </mxGeometry>
        </mxCell>
        <mxCell id="IuwNRAZsEj3mbs88M-d0-28" style="edgeStyle=orthogonalEdgeStyle;rounded=0;orthogonalLoop=1;jettySize=auto;html=1;" edge="1" parent="IuwNRAZsEj3mbs88M-d0-1" source="IuwNRAZsEj3mbs88M-d0-5">
          <mxGeometry relative="1" as="geometry">
            <mxPoint x="340" y="150" as="targetPoint" />
            <Array as="points">
              <mxPoint x="340" y="220" />
              <mxPoint x="340" y="152" />
            </Array>
          </mxGeometry>
        </mxCell>
        <mxCell id="IuwNRAZsEj3mbs88M-d0-29" style="edgeStyle=orthogonalEdgeStyle;rounded=0;orthogonalLoop=1;jettySize=auto;html=1;entryX=0;entryY=0.5;entryDx=0;entryDy=0;" edge="1" parent="IuwNRAZsEj3mbs88M-d0-1" source="IuwNRAZsEj3mbs88M-d0-5" target="IuwNRAZsEj3mbs88M-d0-13">
          <mxGeometry relative="1" as="geometry" />
        </mxCell>
        <mxCell id="ZGFu3zz_KB0BWrI_LdIU-14" style="edgeStyle=orthogonalEdgeStyle;rounded=0;orthogonalLoop=1;jettySize=auto;html=1;entryX=0.5;entryY=0;entryDx=0;entryDy=0;" edge="1" parent="IuwNRAZsEj3mbs88M-d0-1" source="IuwNRAZsEj3mbs88M-d0-3" target="ZGFu3zz_KB0BWrI_LdIU-13">
          <mxGeometry relative="1" as="geometry">
            <Array as="points">
              <mxPoint x="430" y="340" />
              <mxPoint x="430" y="440" />
              <mxPoint x="470" y="440" />
            </Array>
          </mxGeometry>
        </mxCell>
        <mxCell id="ZGFu3zz_KB0BWrI_LdIU-15" value="" style="group" vertex="1" connectable="0" parent="IuwNRAZsEj3mbs88M-d0-1">
          <mxGeometry x="280" y="560" width="380" height="230" as="geometry" />
        </mxCell>
        <mxCell id="ZGFu3zz_KB0BWrI_LdIU-13" value="" style="rounded=0;whiteSpace=wrap;html=1;fillColor=#dae8fc;strokeColor=#6c8ebf;" vertex="1" parent="ZGFu3zz_KB0BWrI_LdIU-15">
          <mxGeometry width="380" height="230" as="geometry" />
        </mxCell>
        <mxCell id="ZGFu3zz_KB0BWrI_LdIU-0" value="Redis master1" style="shape=cylinder3;whiteSpace=wrap;html=1;boundedLbl=1;backgroundOutline=1;size=15;" vertex="1" parent="ZGFu3zz_KB0BWrI_LdIU-15">
          <mxGeometry x="50" y="30" width="60" height="80" as="geometry" />
        </mxCell>
        <mxCell id="ZGFu3zz_KB0BWrI_LdIU-1" value="Redis master2" style="shape=cylinder3;whiteSpace=wrap;html=1;boundedLbl=1;backgroundOutline=1;size=15;" vertex="1" parent="ZGFu3zz_KB0BWrI_LdIU-15">
          <mxGeometry x="160" y="30" width="60" height="80" as="geometry" />
        </mxCell>
        <mxCell id="ZGFu3zz_KB0BWrI_LdIU-2" value="Redis master3" style="shape=cylinder3;whiteSpace=wrap;html=1;boundedLbl=1;backgroundOutline=1;size=15;" vertex="1" parent="ZGFu3zz_KB0BWrI_LdIU-15">
          <mxGeometry x="260" y="30" width="60" height="80" as="geometry" />
        </mxCell>
        <mxCell id="ZGFu3zz_KB0BWrI_LdIU-5" value="Redis slave1-1" style="shape=cylinder3;whiteSpace=wrap;html=1;boundedLbl=1;backgroundOutline=1;size=15;" vertex="1" parent="ZGFu3zz_KB0BWrI_LdIU-15">
          <mxGeometry x="50" y="147" width="60" height="80" as="geometry" />
        </mxCell>
        <mxCell id="ZGFu3zz_KB0BWrI_LdIU-6" value="Redis&lt;div&gt;slave2-1&lt;/div&gt;" style="shape=cylinder3;whiteSpace=wrap;html=1;boundedLbl=1;backgroundOutline=1;size=15;" vertex="1" parent="ZGFu3zz_KB0BWrI_LdIU-15">
          <mxGeometry x="160" y="147" width="60" height="80" as="geometry" />
        </mxCell>
        <mxCell id="ZGFu3zz_KB0BWrI_LdIU-7" value="Redis&lt;div&gt;slave3-1&lt;/div&gt;" style="shape=cylinder3;whiteSpace=wrap;html=1;boundedLbl=1;backgroundOutline=1;size=15;" vertex="1" parent="ZGFu3zz_KB0BWrI_LdIU-15">
          <mxGeometry x="260" y="147" width="60" height="80" as="geometry" />
        </mxCell>
        <mxCell id="ZGFu3zz_KB0BWrI_LdIU-8" value="" style="edgeStyle=orthogonalEdgeStyle;rounded=0;orthogonalLoop=1;jettySize=auto;html=1;endArrow=classic;endFill=1;startArrow=classic;startFill=1;" edge="1" parent="ZGFu3zz_KB0BWrI_LdIU-15" source="ZGFu3zz_KB0BWrI_LdIU-0" target="ZGFu3zz_KB0BWrI_LdIU-1">
          <mxGeometry relative="1" as="geometry" />
        </mxCell>
        <mxCell id="ZGFu3zz_KB0BWrI_LdIU-9" style="edgeStyle=orthogonalEdgeStyle;rounded=0;orthogonalLoop=1;jettySize=auto;html=1;entryX=0;entryY=0.5;entryDx=0;entryDy=0;entryPerimeter=0;startArrow=classic;startFill=1;" edge="1" parent="ZGFu3zz_KB0BWrI_LdIU-15" source="ZGFu3zz_KB0BWrI_LdIU-1" target="ZGFu3zz_KB0BWrI_LdIU-2">
          <mxGeometry relative="1" as="geometry" />
        </mxCell>
        <mxCell id="ZGFu3zz_KB0BWrI_LdIU-10" style="edgeStyle=orthogonalEdgeStyle;rounded=0;orthogonalLoop=1;jettySize=auto;html=1;" edge="1" parent="ZGFu3zz_KB0BWrI_LdIU-15" source="ZGFu3zz_KB0BWrI_LdIU-0" target="ZGFu3zz_KB0BWrI_LdIU-5">
          <mxGeometry relative="1" as="geometry" />
        </mxCell>
        <mxCell id="ZGFu3zz_KB0BWrI_LdIU-11" style="edgeStyle=orthogonalEdgeStyle;rounded=0;orthogonalLoop=1;jettySize=auto;html=1;entryX=0.5;entryY=0;entryDx=0;entryDy=0;entryPerimeter=0;" edge="1" parent="ZGFu3zz_KB0BWrI_LdIU-15" source="ZGFu3zz_KB0BWrI_LdIU-1" target="ZGFu3zz_KB0BWrI_LdIU-6">
          <mxGeometry relative="1" as="geometry" />
        </mxCell>
        <mxCell id="ZGFu3zz_KB0BWrI_LdIU-12" style="edgeStyle=orthogonalEdgeStyle;rounded=0;orthogonalLoop=1;jettySize=auto;html=1;entryX=0.5;entryY=0;entryDx=0;entryDy=0;entryPerimeter=0;" edge="1" parent="ZGFu3zz_KB0BWrI_LdIU-15" source="ZGFu3zz_KB0BWrI_LdIU-2" target="ZGFu3zz_KB0BWrI_LdIU-7">
          <mxGeometry relative="1" as="geometry" />
        </mxCell>
        <mxCell id="ZGFu3zz_KB0BWrI_LdIU-16" style="edgeStyle=orthogonalEdgeStyle;rounded=0;orthogonalLoop=1;jettySize=auto;html=1;startArrow=classic;startFill=1;" edge="1" parent="ZGFu3zz_KB0BWrI_LdIU-15" source="ZGFu3zz_KB0BWrI_LdIU-0">
          <mxGeometry relative="1" as="geometry">
            <mxPoint x="290" y="110" as="targetPoint" />
            <Array as="points">
              <mxPoint x="80" y="120" />
              <mxPoint x="290" y="120" />
            </Array>
          </mxGeometry>
        </mxCell>
      </root>
    </mxGraphModel>
  </diagram>
</mxfile>
